<svg width="26" height="26" viewBox="0 0 26 26" fill="none" xmlns="http://www.w3.org/2000/svg">
<rect x="0.75" y="0.75" width="24.5" height="24.5" stroke="black" stroke-width="1.5"/>
<path d="M6.46926 19.1C6.32259 19.1 6.24926 19.0267 6.24926 18.88V3.92C6.24926 3.77334 6.32259 3.70001 6.46926 3.70001H7.59126C7.73792 3.70001 7.81126 3.77334 7.81126 3.92V12.918C7.81126 12.9473 7.81859 12.9693 7.83326 12.984C7.86259 12.9987 7.89192 12.9913 7.92126 12.962L12.5853 8.07801C12.6586 8.00467 12.7466 7.96801 12.8493 7.96801H14.1693C14.2573 7.96801 14.3159 7.99734 14.3453 8.05601C14.3746 8.11467 14.3599 8.17334 14.3013 8.23201L11.4853 11.356C11.4559 11.3853 11.4486 11.422 11.4633 11.466L14.8293 18.836L14.8513 18.924C14.8513 19.0413 14.7853 19.1 14.6533 19.1H13.4653C13.3479 19.1 13.2673 19.0413 13.2233 18.924L10.3853 12.5C10.3559 12.4413 10.3193 12.434 10.2753 12.478L7.85526 15.03C7.82592 15.0593 7.81126 15.096 7.81126 15.14V18.88C7.81126 19.0267 7.73792 19.1 7.59126 19.1H6.46926Z" fill="black"/>
<path d="M7.59082 1.29999C7.73749 1.29999 7.81152 1.37402 7.81152 1.52069V4.70038H6.24902V1.52069C6.24902 1.37402 6.32306 1.29999 6.46973 1.29999H7.59082Z" fill="black"/>
</svg>
